HIERARCHY
ROOT base
{
	OFFSET 0.0 0.0 0.0
	CHANNELS 6 Xposition Yposition Zposition Zrotation Yrotation Xrotation
	JOINT root
	{
		OFFSET 0 0 0
		CHANNELS 6 Xposition Yposition Zposition Zrotation Yrotation Xrotation
		JOINT chest
		{
			OFFSET 0 4.72302 0
			CHANNELS 3 Zrotation Yrotation Xrotation
			JOINT neck
			{
				OFFSET 0 4.47788 0
				CHANNELS 3 Zrotation Yrotation Xrotation
				End Site
				{
					OFFSET 0.0 0.0 0.0
				}
			}
			JOINT right_shoulder
			{
				OFFSET -0.481 4.87 3.6622
				CHANNELS 3 Zrotation Yrotation Xrotation
				JOINT right_elbow
				{
					OFFSET 0 -5.49576 0
					CHANNELS 3 Zrotation Yrotation Xrotation
					JOINT right_wrist
					{
						OFFSET 0 -5.17894 0
						CHANNELS 3 Zrotation Yrotation Xrotation
						End Site
						{
							OFFSET 0.0 0.0 0.0
						}
					}
				}
			}
			JOINT left_shoulder
			{
				OFFSET -0.481 4.87 -3.6622
				CHANNELS 3 Zrotation Yrotation Xrotation
				JOINT left_elbow
				{
					OFFSET 0 -5.49576 0
					CHANNELS 3 Zrotation Yrotation Xrotation
					JOINT left_wrist
					{
						OFFSET 0 -5.17894 0
						CHANNELS 3 Zrotation Yrotation Xrotation
						End Site
						{
							OFFSET 0.0 0.0 0.0
						}
					}
				}
			}
		}
		JOINT right_hip
		{
			OFFSET 0 0 1.69774
			CHANNELS 3 Zrotation Yrotation Xrotation
			JOINT right_knee
			{
				OFFSET 0 -8.43092 0
				CHANNELS 3 Zrotation Yrotation Xrotation
				JOINT right_ankle
				{
					OFFSET 0 -8.1974 0
					CHANNELS 3 Zrotation Yrotation Xrotation
					End Site
					{
						OFFSET 0.0 0.0 0.0
					}
				}
			}
		}
		JOINT left_hip
		{
			OFFSET 0 0 -1.69774
			CHANNELS 3 Zrotation Yrotation Xrotation
			JOINT left_knee
			{
				OFFSET 0 -8.43092 0
				CHANNELS 3 Zrotation Yrotation Xrotation
				JOINT left_ankle
				{
					OFFSET 0 -8.1974 0
					CHANNELS 3 Zrotation Yrotation Xrotation
					End Site
					{
						OFFSET 0.0 0.0 0.0
					}
				}
			}
		}
	}
	JOINT red_arrow
	{
		OFFSET 0 0 0
		CHANNELS 3 Zrotation Yrotation Xrotation
		End Site
		{
			OFFSET 0.0 0.0 0.0
		}
	}
	JOINT blue_arrow
	{
		OFFSET 0 0 0
		CHANNELS 3 Zrotation Yrotation Xrotation
		End Site
		{
			OFFSET 0.0 0.0 0.0
		}
	}
}
MOTION
Frames: 15
Frame Time: 0.0333333333333333
491.102775144577 0 -327.069522112608 0 53.7737708981126 0 0 16.183127450943 0 -18.5022829837045 10.1345425136819 -0.699324923692788 -4.90360451837958 2.8811873937598 -3.91983797040359 9.70438653320346 -2.45277954169528 2.52176614828034 -2.40246798672829 27.7078601949464 -30.9040444742514 73.7711520176369 0 0 0 0 0 -25.1369059571956 3.19603982637659 32.8031432325901 75.5204932376714 0 0 0 0 0 9.14180986001172 -8.92481759203905 -15.9280214678069 -80.7928460315984 0 0 -23.7016137680602 -6.38292044903178 23.0086214286075 45.2331545727212 10.9741823424425 -8.17433108481631 -39.8915798285815 0 0 13.3689118510969 3.2178334588237 10.3050753067484 0 0 0 0 0 0
491.888448929787 0 -328.57154482007 0 54.4720185409519 0 0 16.0665811181068 0 -20.8043662563649 12.429470232788 -1.81795637622772 -3.12713702958876 -0.467363536868057 -2.56881804417411 8.10005544631164 -2.10742280700395 2.14985018506685 -14.7332338474725 23.9157559317936 -31.7250683884038 68.052227795396 0 0 0 0 0 -5.80897206836041 -7.06937455297945 34.0388183238352 79.6520746666121 0 0 0 0 0 24.0591570329157 -7.28474051265376 -19.6417542721475 -90.1545491948281 0 0 -15.8615706534392 -8.75671962206939 22.8304602354169 43.9765329422067 8.54832248513739 -9.06419753154677 -45.3317606156995 0 0 21.5537677694856 2.05071409852757 9.04604369083525 0 0 0 0 0 0
492.712719410658 0 -330.026088398695 0 55.2504804815891 0 0 16.1766243457794 0 -22.7238858111038 13.687559962939 -4.28197162819551 -2.7680388979095 -5.17335712533356 0.773639034801197 5.09181101484025 -1.00590802040071 1.50836652357056 -27.9109830461785 19.6410358696131 -34.2353161419077 59.5388682780279 0 0 0 0 0 14.6395424242324 -18.4362331232487 35.1952905370113 83.6187343478537 0 0 0 0 0 42.2225661859017 -2.92568886405882 -19.9655656262703 -95.1885488772892 0 0 -6.4024190413279 -11.0816187368304 22.5227490411993 39.4664297996151 5.16681607616294 -7.93166464340014 -44.3354579969427 0 0 26.8320651560508 0.904599713056657 7.82796089894009 0 0 0 0 0 0
493.616255113483 0 -331.673712551594 0 55.9587095008504 0 0 16.3762283682823 0 -22.838172367753 12.4355774495586 -6.62829916679309 -4.07344355715665 -9.14248403311113 5.40164653612878 2.20175008354746 0.614462675340829 0.896380306320303 -42.398084797396 15.4438325686879 -37.6734333467575 49.1502564183706 0 0 0 0 0 34.9321936137475 -29.2623211912757 34.82725358853 87.4591379822876 0 0 0 0 0 60.9328585803004 2.99740843214338 -15.8451002420537 -95.4004964774238 0 0 3.85357835577164 -12.7713041999201 21.1465301237266 30.2383825880322 2.52793574891246 -4.88750160545325 -38.1188452106397 0 0 30.3107728984369 1.17069893340458 6.53203485228312 0 0 0 0 0 0
494.608493196964 0 -333.499130392075 0 56.43768527234 0 0 16.5050877094269 0 -21.9285600240126 8.45198957976136 -8.5164319585213 -6.27846719620182 -11.9070407742575 10.2940563629175 0.349516295693107 2.50607575654348 0.619088013895512 -56.1233597029868 9.12169584763416 -40.6164431704216 44.1346231145876 0 0 0 0 0 52.6064001982835 -37.7194396861849 32.6743294941267 91.4693537798663 0 0 0 0 0 78.2083441014454 7.51576175338897 -7.2907714702455 -88.2524712845737 0 0 12.3818640105764 -13.1436158767266 19.9454595939545 18.0032671000016 2.37795325168986 -1.13819947752629 -28.504327717924 0 0 30.3212173364358 3.25913207191745 5.60907380670907 0 0 0 0 0 0
495.621096554399 0 -335.391647040844 0 56.6653061143685 0 0 16.6343809723854 0 -21.2962150178986 4.03048700886246 -9.32427406110808 -9.01110140601789 -14.2039655307516 14.1452012454371 -0.602252927351289 4.19822857599807 0.677636681200917 -64.4698443097222 1.56923211765974 -40.8293692493547 44.6202256589134 0 0 0 0 0 61.8931953370681 -41.2419146493372 30.9637719691363 95.2214703890887 0 0 0 0 0 89.6265045616622 8.50338404721134 1.03526983345839 -74.7657095230608 0 0 18.1133224700624 -12.2795082377885 19.2683702927412 7.31438176458468 3.57155345546607 0.474787464694621 -20.8179077411057 0 0 21.0889011213637 6.97784434950242 4.26531068487897 0 0 0 0 0 0
496.631612160802 0 -337.26003497839 0 56.7373751363411 0 0 16.8377591848373 0 -21.227415101188 1.27643640104296 -9.39998659773883 -12.7022965075824 -16.5662914790817 16.6923897516475 -0.288181484644983 5.02608153712886 1.33101672878424 -66.3474501487987 -4.1102410807664 -38.7546219506887 48.0196108088288 0 0 0 0 0 61.222021952698 -41.2796204982971 32.0130615680127 97.7454848345968 0 0 0 0 0 93.0078913132523 7.05516178931366 6.44073072188565 -60.8138391998266 0 0 22.2635852442898 -10.27802090502 17.8265339806407 -0.178214417743077 5.26849291016296 0.831716500400017 -15.6924552407527 0 0 1.89208427840767 7.99120933993653 1.03530420150092 0 0 0 0 0 0
497.658505254984 0 -339.09152662158 0 56.7593526297225 0 0 17.0564591050148 0 -21.2543209906465 0.38917022945062 -9.32736044852495 -17.0038630207601 -18.6295749397156 18.1022587992014 1.33775729737599 4.77069082227024 1.99868084887192 -63.2422608262329 -7.64807102416262 -35.6114624190537 52.837633079545 0 0 0 0 0 54.3720994329233 -39.8817514889287 34.7459249008036 98.3926520886447 0 0 0 0 0 89.4210815308379 4.74195477681477 9.30635241381555 -49.269651540157 0 0 24.4308840784188 -7.46515779554592 15.641627247877 -4.26104249654087 4.91048941083257 1.72004973406888 -11.2979636089589 0 0 -16.2252747548173 5.68271432316003 -5.23269739640852 0 0 0 0 0 0
498.729713872075 0 -340.955578261614 0 56.7666293983029 0 0 17.1684119343758 0 -20.7482500246096 0.129292015270817 -9.16045354946345 -20.5218723835541 -19.3110091306235 18.1585847282581 3.77750262761422 3.82242601843229 2.16203084420012 -57.5685530556007 -10.0724797007962 -32.4036791443759 58.0373194908923 0 0 0 0 0 44.5700861344692 -38.3383423346416 37.6424268122443 96.8551286951506 0 0 0 0 0 81.3024813571812 2.56762781748019 11.0954729081357 -40.2428427972169 0 0 24.8499149781187 -5.1534400471165 14.749161236424 -5.35105585470771 7.44210861100998 3.71864796299129 -11.3009321799269 0 0 -27.0344579848465 1.715623175091 -12.1938974815231 0 0 0 0 0 0
499.857780990005 0 -342.900311541557 0 56.7934327299165 0 0 17.072807598114 0 -19.5134619458242 0.480014172851843 -8.85744780514382 -22.5324540515608 -18.8281073523664 17.057468212335 6.52513473931263 2.72726598611873 1.86296951134594 -50.7311020041657 -11.5125547227321 -29.8368238699885 63.1553988020363 0 0 0 0 0 33.1848459222963 -36.8518343455248 39.657289192614 93.8225451942325 0 0 0 0 0 70.3560478005757 0.650109941789483 11.546459083171 -32.988666219381 0 0 23.2469142881997 -3.90362763260771 14.8063755986303 -4.36974652366917 8.88267001029008 6.64762992697457 -17.9866918772979 0 0 -30.7307742755906 -0.517313628024578 -14.2110167845141 0 0 0 0 0 0
500.978451991081 0 -344.931345331669 0 56.8510116856394 0 0 16.7155514121056 0 -17.813111722339 1.04156499216602 -7.89473724263305 -23.2113103325341 -17.3012071486393 14.9081470542624 9.37774989081564 1.53619229667709 1.11788932999769 -42.7586549225711 -11.1421057315366 -28.35722787549 67.6805357309531 0 0 0 0 0 21.2038619340774 -35.062216754677 40.384279205387 89.4287801238117 0 0 0 0 0 58.6405310082642 -1.54914130053479 10.2506019897039 -28.4856864241317 0 0 19.8578643541305 -3.35832288459651 15.5490906457381 -2.72346489611421 6.94603666381664 9.07616730088327 -29.4054192071981 0 0 -30.4919467807649 -1.68923102269738 -16.3537560532521 0 0 0 0 0 0
502.032785515487 0 -346.908110415935 0 56.804366862947 0 0 16.1653872013092 0 -16.7724481403993 -0.848554680784494 -6.77526093153538 -22.4144187056599 -12.9017528909993 11.7025456885785 11.991317159353 0.133650946930609 0.0818239606898558 -32.4265791179803 -8.34047422383719 -28.2775969878435 71.6931830758764 0 0 0 0 0 8.80107724833984 -32.3778971932484 39.8541409532968 82.8578034629901 0 0 0 0 0 50.1016364337373 -5.82007280362486 10.1316152447187 -28.2170226406765 0 0 9.30047688556168 -2.46974161496256 -1.52576187987803 1.16222534397153 5.56638407454629 11.2527106512859 -43.7827488440215 0 0 -27.4804098677363 -2.22303575119855 -19.5628174521473 0 0 0 0 0 0
502.927060267329 0 -348.594121807814 0 56.4506160570899 0 0 15.9222504973412 0 -18.1835406441397 -6.38846389955457 -6.33201185204808 -18.973939722778 -5.93283008363366 7.67069639822437 12.2039143624414 -1.40966517879321 -0.329333021374899 -20.2143265421519 -2.77940257598024 -28.9046996934623 74.7040738959906 0 0 0 0 0 -4.85656100791917 -29.2514884913908 38.1879820648636 73.6251977052629 0 0 0 0 0 50.7167949847994 -5.73802732719343 12.6939741874918 -37.745916881957 0 0 4.65110181187958 0.397630325610752 -5.74842390354788 10.7198567147582 4.81499480662155 14.5484002328452 -59.668477947718 0 0 -22.4668176250256 -1.59308662156375 -21.0993726435212 0 0 0 0 0 0
503.581266054511 0 -350.034088093042 0 55.9030477211317 0 0 16.086194896698 0 -22.5629814136035 -9.62296226584307 -5.65275483890697 -14.1989195050789 -1.28431562711012 5.19441520178165 11.4304712350629 -2.47226310304551 -1.27438954879282 -4.69834942987473 7.84441978746245 -31.261337543553 79.5965247380924 0 0 0 0 0 -17.4729424537877 -24.0723658693345 38.7043118820236 68.7676286392523 0 0 0 0 0 50.830539979722 -5.15289578802607 13.1217377141341 -40.6348888253865 0 0 11.4443156212295 3.86130940725026 -5.07502028862035 27.2352638042731 1.87302444780624 18.465462776799 -71.6095132585437 0 0 -13.4568705264387 1.37891349161459 -20.7295009269811 0 0 0 0 0 0
504.115180000663 0 -351.562585580349 0 55.2524777140181 0 0 16.3461815834045 0 -26.2775312273603 -11.11703508211 -3.42155195184591 -10.3927907728905 3.0343084015298 2.25863955235322 10.7966437642419 -3.12317942956047 -1.2566666251813 12.5482570886333 20.3786536408834 -34.5634211213192 84.5742095108468 0 0 0 0 0 -31.005654793899 -17.9916209142305 40.2911680797702 61.8376504054657 0 0 0 0 0 48.8109141091301 -2.67141049383081 10.9302613908912 -39.8872529037423 0 0 16.5771203773962 6.24072288219975 -3.14809840095359 45.8961623829462 -2.02593614864622 19.1551607015591 -80.5278142012344 0 0 -5.00535001961161 4.7186033180169 -21.3675347496305 0 0 0 0 0 0
